<svg version="1.1" xmlns="http://www.w3.org/2000/svg" xmlns:xlink="http://www.w3.org/1999/xlink" width="728.14482" height="487.23594" viewBox="0,0,728.14482,487.23594"><g transform="translate(476.3028,117.19446)"><g data-paper-data="{&quot;isPaintingLayer&quot;:true}" fill-rule="nonzero" stroke="none" stroke-width="0.5" stroke-linecap="butt" stroke-linejoin="miter" stroke-miterlimit="10" stroke-dasharray="" stroke-dashoffset="0" style="mix-blend-mode: normal"><path d="M22.5341,298.07909c0.00918,3.18282 0.02826,6.36656 -0.00408,9.54854c-0.03213,3.16134 0.39562,5.14442 -2.23373,7.77377c-3.60932,3.60932 -10.7387,2.23373 -15.28128,2.23373c-11.01101,0 -22.02202,0 -33.03303,0c-5.35826,0 -11.77146,0.8526 -17.01792,-0.0508c-1.25516,-0.21613 -2.26026,-1.27458 -3.51351,-1.5015c-3.11559,-0.56412 -6.33235,0.0508 -9.4986,0.0508c-4.35435,0 -8.70871,0 -13.06306,0c-17.85216,0 -35.72851,0.2668 -53.57739,-0.06688c-6.25086,-3.12543 -13.83914,-0.80673 -20.69298,-1.44679c-2.54101,-0.2373 -4.97093,-1.22078 -7.50751,-1.5015c-9.48656,-1.04989 -19.73491,0.01217 -29.28819,0.01217c-3.18783,0 -8.30347,0.68159 -11.51355,-0.05206c-1.31468,-0.30046 -2.39557,-1.32591 -3.71609,-1.59956c-3.16367,-0.6556 -6.46181,-0.58293 -9.59534,-1.37011c-12.74207,0.08799 -25.49551,0.09932 -38.23809,0.01873c-5.32914,-0.0337 -10.50558,-0.46116 -13.3157,-6.0478c-0.26238,-0.52162 -0.1903,-8.24904 -0.1903,-8.46422c0,-6.50651 0,-13.01301 0,-19.51952c0,-9.00901 0,-18.01802 0,-27.02703c0,-3.21978 -0.59159,-7.70194 0.03228,-10.91097c0.31671,-1.62908 1.11443,-3.12996 1.54926,-4.73157c1.16044,-4.27424 1.09466,-8.59454 1.73761,-12.90839c0.24258,-1.62757 0.97657,-3.15781 1.20409,-4.78756c0.7015,-5.02511 -0.01873,-10.6269 -0.01873,-15.71556c0,-23.59815 0.9412,-47.38899 0.00207,-70.96442c-0.12547,-3.14965 -1.13563,-6.20626 -1.48756,-9.33869c-0.03256,-0.28984 -0.00851,-9.5025 -0.00749,-10.07627c-0.17234,-1.0204 -1.46262,-8.62995 -1.5015,-9.00901c-0.34028,-3.31765 0.62252,-7.00853 0.03151,-10.27115c-0.25435,-1.40414 -1.27187,-2.60062 -1.5015,-4.00901c-0.74659,-4.57903 0.31314,-9.62138 -0.03151,-14.24836c-0.21438,-2.87816 -0.71635,-5.74191 -1.41755,-8.54157c-0.67137,-2.68053 -2.47597,-5.00541 -3.05036,-7.70838c-0.81227,-3.82238 -0.04511,-8.57441 -0.04511,-12.4998c0,-7.5025 0,-15.00501 0,-22.50751c0,-9.50951 0,-19.01902 0,-28.52853c0,-3.09183 0.84322,-6.99682 0.06688,-9.93613c-0.28579,-1.08205 -1.2883,-1.90435 -1.5015,-3.003c-0.5284,-2.72285 -0.5415,-10.44025 0,-13.16078c0.24195,-1.21559 1.14936,-2.20092 1.61106,-3.35115c0.97768,-2.43568 1.302,-5.09971 2.26844,-7.53988c2.07156,-5.23048 4.39582,-10.32748 6.94106,-15.38018c2.78715,-3.7027 5.20888,-7.60679 9.19666,-10.20657c1.37262,-0.89486 3.13421,-1.08372 4.48612,-2.00955c3.17953,-2.17742 6.4673,-6.5447 9.19504,-9.25261c2.66665,-2.64726 4.13674,-7.16926 8.11351,-8.14932c4.17367,-1.02859 10.28365,-0.09042 14.67528,-0.09042c0.96118,0 6.44301,-0.04805 6.96271,0.1903c1.28675,0.59014 1.70221,2.44448 3.003,3.003c1.08823,0.46725 2.364,-0.15591 3.5478,-0.1903c3.49278,-0.10147 7.01782,0 10.51051,0c5.00501,0 10.01001,0 15.01502,0c2.36904,0 4.78707,0.51189 7.10705,0.03228c1.54995,-0.32042 2.94316,-1.24227 4.5045,-1.5015c1.42408,-0.23644 2.91161,0.29997 4.33058,0.0346c2.01208,-0.3763 3.62684,-1.89989 5.46235,-2.80595c7.85068,-3.8753 12.24798,-12.80951 19.28409,-17.88389c2.25973,-1.6297 5.19731,-2.00955 7.80602,-2.98777c4.21746,-1.58148 8.39837,-3.23434 12.59419,-4.87269c12.1173,-0.10982 25.36896,-1.59063 37.15047,1.54014c5.89678,1.56699 11.09963,4.68224 16.10435,8.07313c1.55703,1.05495 3.34083,1.84658 4.6477,3.19912c3.67289,3.80123 3.41622,9.69398 4.97948,14.31279c1.35328,3.99841 3.81602,7.89474 5.48661,11.79122c0.45484,1.24694 0.42981,2.79844 1.36451,3.74082c0.7814,0.78782 2.11401,0.71462 3.21219,0.87349c3.12543,0.45215 9.10613,0.90495 11.63209,-1.04792c2.1712,-1.67859 3.50022,-5.17071 5.96804,-6.27279c2.48499,-1.10975 10.56406,-0.21908 13.53094,-0.21908c11.19976,0 22.69011,-0.90042 32.43486,5.92694c2.92353,2.04828 5.09143,5.00476 7.65004,7.49394c1.75238,7.1149 1.45414,13.82644 1.45414,21.12116c0,4.65438 0.09976,9.22212 -0.41248,13.85075c-0.11138,1.00639 -1.09216,10.18962 -1.33577,10.74573c-0.6253,1.42745 -2.30053,2.12956 -3.22816,3.38181c-0.66617,0.89929 -0.82001,2.11527 -1.5015,3.003c-0.7498,0.97672 -2.21049,1.3776 -2.72141,2.49794c-0.42298,0.92751 0.16622,2.03318 0.1903,3.0523c0.06303,2.66692 0,5.33534 0,8.003c0,8.50851 0,17.01702 0,25.52553c0,4.78297 0.36565,9.75381 0,14.51952c-0.08648,1.12711 -0.87233,2.22438 -0.63916,3.33049c0.0917,0.43499 0.79365,-0.55394 1.23524,-0.50277c1.61098,0.18668 3.12001,0.90947 4.71688,1.19251c1.3219,0.2343 2.93287,-0.44416 4.01187,0.35464c1.40788,1.04228 2.14967,2.86795 2.6203,4.55525c0.06278,0.22507 0.07709,6.84722 0.06688,8.08189c-0.01401,1.69305 0.25665,3.41698 -0.06688,5.07889c-0.21918,1.1259 -1.22038,1.97942 -1.52258,3.08593c-0.30796,1.12759 0.16468,2.41282 -0.27501,3.49586c-0.50506,1.24406 -3.60074,5.50033 -4.80083,7.1806c-2.89778,4.05725 -5.55545,7.92094 -9.08195,11.45501c-0.9506,0.95264 -6.15897,6.17547 -6.45945,6.36487c-1.45103,0.91461 -3.24142,1.12305 -4.86212,1.68457c-3.38847,1.70259 -6.88454,3.25492 -9.88225,5.62966c-2.17998,1.72695 -3.8611,4.00731 -5.89235,5.90696c-4.46698,4.17755 -9.30275,7.53429 -13.13949,12.3396c-2.91122,3.64615 -7.25364,7.56132 -8.70787,12.13592c-1.76024,5.53722 -1.3968,11.59562 -1.37468,17.30986c0.02516,6.49855 -0.14119,12.62141 1.53252,18.93161c1.39187,2.68813 2.14103,5.81971 4.16713,8.06876c1.98664,2.20524 7.37762,4.4409 10.21821,4.9903c2.39857,0.46391 5.08294,0.51614 7.06733,1.94111c4.53701,3.25801 7.43045,8.24606 10.95158,12.41864c2.09878,2.48708 4.44459,4.18417 6.50927,6.74793c2.0862,2.5905 3.46985,5.69489 5.53326,8.30359c1.02577,1.29685 2.67571,2.13497 3.37935,3.63127c0.56233,1.19581 0.1542,2.63878 0.1903,3.95971c0.12292,4.49733 0,9.01477 0,13.51351c0,10.84585 0,21.69169 0,32.53754c0,5.02881 -1.13105,11.66444 -0.04002,16.56645c0.31001,1.39291 1.27187,2.60062 1.5015,4.00901c0.6595,4.04485 0.04002,8.82312 0.04002,12.95306c0,0 0,2.5 -2.5,2.5c-0.17879,0 -0.34479,-0.01279 -0.49892,-0.03653z" fill="#0c8600"/><path d="M-19.51454,45.40542c0.15599,-0.0244 0.32418,-0.03755 0.50552,-0.03755c2.5,0 2.5,2.5 2.5,2.5c-0.05155,1.87192 0.98044,3.61491 1.43462,5.43162c0.405,1.62001 -0.68872,3.45347 0.83615,4.81262c1.51315,1.34871 3.75424,1.56677 5.49306,2.60849c1.53317,0.91852 3.04016,1.8907 4.4592,2.97725c0.48299,0.36982 0.63936,1.15822 1.21154,1.36478c2.15607,0.77837 5.23334,-1.06391 6.85422,0.55698c0.73774,0.73774 1.1074,8.29821 0.26034,9.23555c-1.39187,1.54021 -3.80278,1.6706 -5.74204,2.41143c-3.19741,1.22148 -7.43497,3.75019 -10.7267,4.56592c-0.34537,0.08559 -5.93731,0.06688 -6.58039,0.06688c-2.20596,0 -9.25005,0.79449 -10.77678,-0.73223c-0.96002,-0.96002 -0.73223,-8.10338 -0.73223,-9.27527c0,-8.00801 0,-16.01602 0,-24.02402c0,-1.52007 -0.15186,-6.98297 0.73223,-7.77377c2.44914,-2.19072 8.31015,-0.28353 9.9004,1.95494c0.65593,0.92329 0.4363,2.16815 0.37085,3.35639z" fill="#ff0000"/><path d="M-111.80817,41.08264l1.59103,-1.45685c2.51152,-1.20281 9.25316,-3.67485 11.89481,-1.0332c2.59724,2.59724 0.22611,9.42333 -1.0332,11.89481c-0.62803,1.23256 -1.00931,2.6572 -1.9698,3.65274c-0.77706,0.80541 -2.20737,0.71443 -3.003,1.5015c-0.70355,0.69598 -0.63854,1.91201 -1.24116,2.69701c-1.02459,1.33467 -2.23669,2.54209 -3.56933,3.56933c-0.8249,0.63585 -2.01596,0.68665 -2.81643,1.35301c-0.70152,0.58399 -0.79115,1.73783 -1.53387,2.26844c-1.68382,1.20294 -3.6974,1.85972 -5.54611,2.78958c-4.61039,0.08619 -9.48834,0.50012 -14.0879,0.06688c-1.60179,-0.15088 -3.63312,0.40542 -4.77077,-0.73223c-1.13765,-1.13765 -0.58136,-3.16898 -0.73223,-4.77077c-0.34521,-3.66488 -0.57069,-8.49655 2.68717,-11.13564c0.77782,-0.63008 2.16476,0.54713 3.003,0c0.79394,-0.51821 0.37766,-1.97374 1.04806,-2.64414c0.6704,-0.6704 2.11824,-0.2592 2.64414,-1.04806c0.64253,-0.9638 -0.50005,-2.67926 0.35886,-3.45644c1.05017,-0.95024 2.84042,-0.25649 4.19639,-0.66536c1.04449,-0.31494 1.86031,-1.21685 2.919,-1.48013c1.43591,-0.35708 2.96615,-0.10139 4.42539,-0.34626c1.84555,-0.3097 3.6836,-0.75893 5.53594,-1.02421z" fill="#ff0000"/><path d="M-109.09911,212.03454c8.00801,0 16.01602,0 24.02402,0c3.98258,0 9.06696,0.81687 12.93913,0.06688c0.91103,-0.17646 1.63393,-0.88044 2.45935,-1.30445c1.88401,-0.96779 3.93504,-1.63977 5.69497,-2.81822c3.18608,-2.1334 5.92628,-5.39047 9.86369,-6.38784c1.23623,-0.31315 7.72663,0.04383 8.34816,0.66536c1.13765,1.13765 0.48816,3.18051 0.73223,4.77077c0,0.62504 0.01871,6.25651 -0.06688,6.58039c-0.72072,2.72738 -3.20989,4.64189 -4.90952,6.8934c-0.75288,0.99734 -0.87824,2.42539 -1.76184,3.30899c-0.8836,0.8836 -2.31166,1.00896 -3.30899,1.76184c-2.25151,1.69963 -4.16602,4.1888 -6.8934,4.90952c-0.32388,0.08559 -5.95535,0.06688 -6.58039,0.06688c-3.5035,0 -7.00701,0 -10.51051,0c-5.81775,0 -11.70227,0.81149 -17.05482,-1.5015c-2.32307,0 -4.64614,0 -6.96921,0c-1.2994,0 -6.54853,0.08625 -7.32033,-0.37337c-1.11378,-0.66327 -1.02952,-2.4541 -1.95494,-3.36186c-0.79894,-0.7837 -2.21188,-0.70991 -3.003,-1.5015c-0.76973,-0.77018 -0.60607,-2.22641 -1.43193,-2.93607c-1.02897,-0.88419 -2.82364,-0.56171 -3.76994,-1.53387c-1.12101,-1.15164 -1.9931,-2.61208 -2.49632,-4.15742c-0.52082,-0.23784 -1.04298,-0.47167 -1.57115,-0.68764l0.30807,-1.46178h-0.77996v-3.003c0,-1.38071 1.11929,-2.5 2.5,-2.5c0.99801,0 1.85943,0.58479 2.26029,1.43041l1.42298,2.84595c3.26378,0.37103 6.51439,0.22815 9.83025,0.22815z" fill="#ff0000"/><path d="M-37.53038,258.02757c7.19706,3.53515 15.42079,7.23915 20.47672,13.52357c0.12356,0.15358 3.10083,5.99091 3.28372,6.42993c0.26623,0.63909 -0.02515,1.65767 0.57976,1.99441c0.87462,0.48687 2.30552,-0.718 3.003,0c1.47053,1.51377 3.10626,3.72164 2.60342,5.7713c-0.51445,2.09701 -3.35696,2.71657 -5.02273,4.09035c-0.83522,0.68882 -1.45971,1.7351 -2.47997,2.09722c-1.9954,0.70824 -4.30401,-0.43233 -6.35117,0.10838c-1.08205,0.28579 -1.91434,1.24203 -3.003,1.5015c-0.3591,0.08559 -5.92579,0.06688 -6.58039,0.06688c-3.98479,0 -8.03308,0.20295 -12.01201,0c-1.44261,-0.07358 -3.13976,0.4632 -4.31733,-0.37337c-3.11389,-2.21217 -2.65638,-5.10306 -2.68717,-8.13263c-0.0712,-7.00534 0,-14.01527 0,-21.02102c0,-1.57811 -0.15186,-6.88968 0.73223,-7.77377c0.88409,-0.88409 6.19567,-0.73223 7.77377,-0.73223h1.5015c0,0 2.46621,0 2.49966,2.44949z" fill="#ff0000"/><path d="M-53.54355,-44.72222c2.5,0 2.5,2.5 2.5,2.5c0,1.72157 0,7.94764 0,9.66921c0.54151,0.20422 1.07207,0.6488 1.37321,1.55223c0.60034,1.80103 -0.62286,2.69028 -1.24628,3.01395c0.2776,1.80599 1.04893,3.59411 2.83428,4.47593c1.51013,0.74589 3.365,-0.1903 5.0493,-0.1903c4.67288,0 13.96676,-1.78186 17.14164,2.68717c0.45962,0.64697 0.37337,6.10744 0.37337,7.32033c0,4.67288 1.78186,13.96676 -2.68717,17.14164c-1.17757,0.83657 -2.87472,0.29979 -4.31733,0.37337c-2.98146,0.15207 -6.02324,0 -9.00901,0c-5.00501,0 -10.01001,0 -15.01502,0c-1.21289,0 -6.67336,0.08625 -7.32033,-0.37337c-1.42803,-1.0145 -2.07072,-2.89199 -2.6203,-4.55525c-0.08559,-0.25903 -0.06688,-6.00978 -0.06688,-6.58039c0,-4.97055 -1.3578,-12.78261 1.28997,-17.20953c2.20654,-3.68919 5.57379,-5.30939 9.22054,-6.6029c0,-2.07254 0,-4.14507 0,-6.21761v-4.5045c0,0 0,-2.5 2.5,-2.5z" fill="#ff0000"/><path d="M-113.00703,131.2195c0.22744,-0.6241 0.63865,-1.03531 0.63865,-1.03531l0.76927,0.26627c0,-0.64307 -0.01871,-6.23502 0.06688,-6.58039c0.24601,-0.99273 3.23988,-6.40484 3.66836,-7.19939c1.3988,-0.72229 2.68334,-1.73209 4.19639,-2.16686c1.14629,-0.32938 2.38478,-0.05476 3.57739,-0.06688c2.82513,-0.02871 6.86144,-0.60766 9.58339,0.06688c0.32456,0.08043 5.98702,2.90662 6.54966,3.20006c1.22654,0.6397 2.6572,1.00931 3.65274,1.9698c0.80541,0.77706 0.72854,2.19366 1.5015,3.003c0.59169,0.61954 1.58129,0.66175 2.35327,1.0332c2.96333,1.42586 5.54097,2.49028 7.19767,5.78386c0.5938,1.1805 0.1542,2.63878 0.1903,3.95971c0.1212,4.43429 0.34838,9.10061 0,13.51351c-0.16566,2.09843 0.56818,4.61704 -0.73223,6.27227c-1.16927,1.48831 -8.82058,0.73223 -10.77678,0.73223c-7.00701,0 -14.01401,0 -21.02102,0c-1.54076,0 -7.97801,0.03486 -8.46422,-0.1903c-1.86333,-0.8629 -3.37096,-2.55424 -4.35599,-4.35599c-1.04848,-1.91779 -0.1903,-7.69358 -0.1903,-9.96572c0,-1.2994 -0.08625,-6.54853 0.37337,-7.32033c0.26909,-0.45187 0.71925,-0.71113 1.22171,-0.91963z" fill="#ff0000"/><path d="M-149.69608,264.58752c-0.50708,-0.35429 -0.94207,-0.96212 -0.94207,-2.00493c0,-2.5 2.5,-2.5 2.5,-2.5h3.003c3.93946,0 8.09224,-0.36921 12.01201,0c1.60179,0.15088 3.63312,-0.40542 4.77077,0.73223c1.52672,1.52672 0.73223,8.57082 0.73223,10.77678c0,3.92359 0.77048,8.78051 -0.06688,12.58639c-0.9762,4.43694 -2.40796,3.57957 -4.90952,6.8934c-0.75288,0.99734 -0.84178,2.46342 -1.76184,3.30899c-3.12797,2.87473 -5.38928,2.22027 -9.27527,2.23373c-3.58888,0.01244 -8.15173,0.50652 -11.03711,-2.53973c-0.55824,-0.58936 -0.48451,-6.22622 -0.47189,-7.46778c0.01212,-1.19261 -0.20964,-2.41721 0.06688,-3.57739c0.25947,-1.08866 1.22516,-1.9185 1.5015,-3.003c0.22021,-0.86423 -0.13553,-1.78679 -0.05471,-2.67496c0.31847,-3.49998 1.50507,-6.69945 1.48933,-10.26417c0,0 0,-2.46224 2.44357,-2.49957z" fill="#ff0000"/><path d="M-127.3043,183.62813c-1.0254,0.71807 -2.53132,-0.0082 -3.74295,0.3065c-2.16642,0.56269 -3.83937,2.44112 -6.00601,3.003c-0.96895,0.25128 -2.02938,-0.23251 -3.003,0c-2.17709,0.5199 -3.83342,2.46461 -6.00601,3.003c-0.34537,0.08559 -5.93731,0.06688 -6.58039,0.06688c-4.004,0 -8.00801,0 -12.01201,0c-2.5025,0 -5.00825,0.12747 -7.50751,0c-1.44261,-0.07358 -3.13976,0.4632 -4.31733,-0.37337c-3.15236,-2.2395 -2.63019,-5.08445 -2.68717,-8.13263c0,-5.00501 0,-10.01001 0,-15.01502c0,-0.64307 -0.01871,-6.23502 0.06688,-6.58039c0.09439,-0.38087 2.8947,-5.93894 3.20006,-6.54966c0.4026,-0.8052 3.09328,-6.26392 3.4713,-6.65574c0.77706,-0.80541 2.19366,-0.72854 3.003,-1.5015c1.74594,-1.66746 1.29535,-5.28857 3.45644,-6.36487c7.81293,-3.89109 8.34156,4.88286 8.3353,10.30741c1.48503,0.56313 1.48503,2.32972 1.48503,2.32972c-0.18512,3.93219 2.56338,4.65065 4.15193,7.72895c0.71984,1.39491 0.70858,3.10357 1.4807,4.47024c1.69728,3.00422 2.84064,1.87115 5.34115,3.79073c0.97672,0.7498 1.42221,2.12224 2.49794,2.72141c0.59847,0.33334 1.36174,-0.1645 2.04629,-0.1903c2.95162,-0.11124 6.05933,-0.15045 9.00901,0c1.44261,0.07358 3.13976,-0.4632 4.31733,0.37337c1.42803,1.0145 1.74686,3.03683 2.6203,4.55525l0.0577,3.0862c0.05759,0.39793 0.00598,0.77485 -0.06546,1.06373c-0.06937,0.30845 -0.20319,0.69576 -0.46137,1.04213c-0.62953,1.25345 -1.0246,2.72605 -2.15116,3.51496z" fill="#ff0000"/><path d="M-159.64716,-21.6662c-0.41189,-0.4123 -0.69691,-0.69788 -0.76927,-0.77023c0,0 -1.76777,-1.76777 0,-3.53553c0.91408,-0.91408 1.82815,-0.88285 2.49783,-0.63952c0.22624,-0.05922 0.4821,-0.09271 0.77144,-0.09271c2.5,0 2.5,2.5 2.5,2.5v0.63071c1.08562,1.19532 2.18752,2.37178 3.46628,3.34719c1.47184,1.12268 5.65692,2.22532 6.90563,2.68365c3.79673,1.39357 8.44415,2.85652 12.10883,4.54227c1.47263,0.67741 3.1911,1.20709 4.17292,2.49687c0.57688,0.75783 -0.75459,2.16514 -0.09852,2.85556c0.80245,0.84446 2.34134,0.24728 3.43311,0.65358c1.35175,0.50305 2.76805,1.05038 3.81406,2.04343c0.81164,0.77055 0.77057,2.15551 1.5015,3.003c2.41661,2.80199 6.02236,-0.77557 9.00901,3.003c6.38625,8.07959 -3.22534,8.74914 -8.70089,8.70539c-1.001,0.5005 -1.91434,1.24203 -3.003,1.5015c-2.00388,0.47761 -4.16258,-0.38245 -6.17993,0.0346c-1.54995,0.32042 -2.9424,1.24687 -4.5045,1.5015c-4.8147,0.78482 -10.53544,0.03228 -15.41547,0.03228c-1.9562,0 -9.6075,0.75608 -10.77678,-0.73223c-0.8483,-1.07976 -0.73223,-7.1094 -0.73223,-9.27527c0,-8.00801 0,-16.01602 0,-24.02402z" fill="#ff0000"/><path d="M-213.30429,-25.04843c2.07608,0.24507 4.13093,0.77358 6.06279,1.53753c0.91782,0.36295 1.66207,1.14317 2.62068,1.37808c0.97224,0.23825 2.04448,-0.2885 3.003,0c1.50747,0.45372 2.79759,1.44457 4.19639,2.16686c0.72229,1.3988 1.79827,2.66587 2.16686,4.19639c0.39641,1.64605 0.05506,3.38582 0.06688,5.07889c0.03843,5.5075 0.1601,10.57476 -1.65679,15.88238c-0.84742,2.47555 -2.21868,4.76419 -2.93147,7.28181c-0.71329,2.51941 -0.69734,6.35285 -1.93098,8.38332c-0.63476,1.04476 -2.33755,0.90787 -3.222,1.75178c-0.59779,0.57039 -0.67243,1.50963 -0.99384,2.27081c-2.17678,5.15522 -4.50381,13.87217 -10.32773,16.28914c-1.68238,0.6982 -3.64016,0.14936 -5.46121,0.1903c-2.67346,0.06011 -6.84936,0.64958 -9.40946,-0.03228c-2.13394,-0.56836 -4.0881,-1.67163 -6.13215,-2.50744c-0.87525,-8.28104 -1.23469,-17.43378 -0.45973,-25.73214c0.2373,-2.54101 1.23439,-4.96946 1.5015,-7.50751c0.16861,-1.6021 -0.27522,-3.25574 0.05471,-4.83254c0.75196,-3.59378 3.76714,-6.76341 5.57681,-9.77951c0.85786,-1.42976 1.40027,-3.03183 2.23719,-4.47395c1.90158,-3.27668 4.47988,-6.09541 7.15808,-8.78844c-0.01564,-0.12793 -0.02395,-0.26368 -0.02395,-0.40774c0,-2.5 2.5,-2.5 2.5,-2.5h0.46134c0.25917,-0.25637 0.51731,-0.51269 0.77389,-0.76927c0,0 1.76777,-1.76777 3.53553,0c0.31106,0.31106 0.51265,0.62211 0.63366,0.92354z" fill="#ff0000"/><path d="M-220.21022,112.93544c2.20244,0 2.46458,1.9403 2.49578,2.40218c0.82377,0.35479 1.63978,0.72021 2.27499,1.33306c0.80541,0.77706 0.71014,2.21164 1.5015,3.003c0.79136,0.79136 2.21164,0.71014 3.003,1.5015c0.79136,0.79136 0.71026,2.21152 1.5015,3.003c0.77577,0.776 2.16873,0.68658 2.95357,1.45341c0.92332,0.90213 1.30351,2.22852 1.95527,3.34279c1.4022,0.94152 3.02426,1.61846 4.2066,2.82457c0.74877,0.76383 0.64231,2.12984 1.39507,2.88974c0.69646,0.70307 1.91201,0.63854 2.69701,1.24116c2.4543,1.8841 4.66235,4.38126 5.47585,7.45973c0.68829,2.60465 0.06688,5.38783 0.06688,8.08189c0,5.70123 1.13916,12.6912 -1.87487,17.83084c-1.82157,3.10621 -5.65374,5.24618 -7.90511,8.0912c-1.23698,1.56315 -1.88882,3.71243 -3.55238,4.81067c-1.16644,0.77005 -2.78613,0.23832 -4.18265,0.29581c-3.98764,0.16416 -8.02055,0 -12.01201,0c-3.04818,-0.05698 -5.89313,0.46519 -8.13263,-2.68717c-0.83657,-1.17757 -0.31229,-2.87414 -0.37337,-4.31733c-0.16874,-3.9869 0,-8.02012 0,-12.01201c0,-8.00801 0,-16.01602 0,-24.02402c0,-3.95683 -0.63564,-8.74437 0.06688,-12.58639c0.2013,-1.1009 1.21571,-1.92096 1.5015,-3.003c0.20681,-0.783 -0.04459,-1.61908 -0.06688,-2.42862c0,0 0,-0.2781 0.09275,-0.64879c-0.32012,-0.98815 0.17118,-1.97075 0.17118,-1.97075c0.80775,-1.3372 1.11372,-3.15971 2.42324,-4.0116c0.13219,-0.086 0.26983,-0.15618 0.41202,-0.21315c0.12075,-0.30328 0.32294,-0.61639 0.63604,-0.92949c0.91408,-0.91408 1.82815,-0.88285 2.49783,-0.63952c0.22624,-0.05922 0.4821,-0.09271 0.77144,-0.09271z" fill="#ff0000"/><path d="M-219.21172,241.56156c0,2.5 -2.5,2.5 -2.5,2.5h-0.37297c4.50831,3.54548 8.66542,7.79921 11.5086,12.70219c0.82572,1.42392 1.3066,3.03883 2.20266,4.41956c0.97622,1.50424 2.60718,2.56682 3.38114,4.18445c1.0341,2.16135 0.13362,4.83003 0.7287,7.15095c0.27796,1.08409 1.24203,1.91434 1.5015,3.003c0.27773,1.16528 0.00394,7.82233 -0.66536,8.34816c-1.65523,1.30041 -4.17384,0.56657 -6.27227,0.73223c-5.42629,0.42838 -11.07725,0 -16.51652,0c-1.23515,0 -6.64124,0.08625 -7.32033,-0.37337c-3.75776,-2.5433 -4.02129,-10.13226 -4.18717,-14.05197c-0.45425,-10.73342 -0.023,-21.58354 -0.00227,-32.33554c-0.04002,-0.01591 -0.07964,-0.03241 -0.11877,-0.04959c0,0 -2.23607,-1.11803 -1.11803,-3.3541c0.81256,-1.62513 2.21569,-1.47859 2.92175,-1.2772c0.23702,-0.06671 0.50739,-0.10476 0.81582,-0.10476c1.43793,0 2.0488,0.82705 2.30832,1.52977c0.3468,0.19842 0.67251,0.42568 0.96095,0.70397c0.80541,0.77706 0.77057,2.15551 1.5015,3.003c1.39076,1.61254 5.51717,0.76927 7.24124,0.76927h1.5015c0,0 2.5,0 2.5,2.5z" fill="#ff0000"/><path d="M-188.68212,303.07909c0.00918,3.18282 0.02826,6.36656 -0.00408,9.54854c-0.03213,3.16134 0.39562,5.14442 -2.23373,7.77377c-3.60932,3.60932 -10.7387,2.23373 -15.28128,2.23373c-11.01101,0 -22.02202,0 -33.03303,0c-5.35826,0 -11.77146,0.8526 -17.01792,-0.0508c-1.25516,-0.21613 -2.26026,-1.27458 -3.51351,-1.5015c-3.11559,-0.56412 -6.33235,0.0508 -9.4986,0.0508c-4.35435,0 -8.70871,0 -13.06306,0c-17.85216,0 -35.72851,0.2668 -53.57739,-0.06688c-6.25086,-3.12543 -13.83914,-0.80673 -20.69298,-1.44679c-2.54101,-0.2373 -4.97093,-1.22078 -7.50751,-1.5015c-9.48656,-1.04989 -19.73491,0.01217 -29.28819,0.01217c-3.18783,0 -8.30347,0.68159 -11.51355,-0.05206c-1.31468,-0.30046 -2.39557,-1.32591 -3.71609,-1.59956c-3.16367,-0.6556 -6.46181,-0.58293 -9.59534,-1.37011c-12.74207,0.08799 -25.49551,0.09932 -38.23809,0.01873c-5.32914,-0.0337 -10.50558,-0.46116 -13.3157,-6.0478c-0.26238,-0.52162 -0.1903,-8.24904 -0.1903,-8.46422c0,-6.50651 0,-13.01301 0,-19.51952c0,-9.00901 0,-18.01802 0,-27.02703c0,-3.21978 -0.59159,-7.70194 0.03228,-10.91097c0.31671,-1.62908 1.11443,-3.12996 1.54926,-4.73157c1.16044,-4.27424 1.09466,-8.59454 1.73761,-12.90839c0.24258,-1.62757 0.97657,-3.15781 1.20409,-4.78756c0.7015,-5.02511 -0.01873,-10.6269 -0.01873,-15.71556c0,-23.59815 0.9412,-47.38899 0.00207,-70.96442c-0.12547,-3.14965 -1.13563,-6.20626 -1.48756,-9.33869c-0.03256,-0.28984 -0.00851,-9.5025 -0.00749,-10.07627c-0.17234,-1.0204 -1.46262,-8.62995 -1.5015,-9.00901c-0.34028,-3.31765 0.62252,-7.00853 0.03151,-10.27115c-0.25435,-1.40414 -1.27187,-2.60062 -1.5015,-4.00901c-0.74659,-4.57903 0.31314,-9.62138 -0.03151,-14.24836c-0.21438,-2.87816 -0.71635,-5.74191 -1.41755,-8.54157c-0.67137,-2.68053 -2.47597,-5.00541 -3.05036,-7.70838c-0.81227,-3.82238 -0.04511,-8.57441 -0.04511,-12.4998c0,-7.5025 0,-15.00501 0,-22.50751c0,-9.50951 0,-19.01902 0,-28.52853c0,-3.09183 0.84322,-6.99682 0.06688,-9.93613c-0.28579,-1.08205 -1.2883,-1.90435 -1.5015,-3.003c-0.5284,-2.72285 -0.5415,-10.44025 0,-13.16078c0.24195,-1.21559 1.14936,-2.20092 1.61106,-3.35115c0.97768,-2.43568 1.302,-5.09971 2.26844,-7.53988c2.07156,-5.23048 4.39582,-10.32748 6.94106,-15.38018c2.78715,-3.7027 5.20888,-7.60679 9.19666,-10.20657c1.37262,-0.89486 3.13421,-1.08372 4.48612,-2.00955c3.17953,-2.17742 6.4673,-6.5447 9.19504,-9.25261c2.66665,-2.64726 4.13674,-7.16926 8.11351,-8.14932c4.17367,-1.02859 10.28365,-0.09042 14.67528,-0.09042c0.96118,0 6.44301,-0.04805 6.96271,0.1903c1.28675,0.59014 1.70221,2.44448 3.003,3.003c1.08823,0.46725 2.364,-0.15591 3.5478,-0.1903c3.49278,-0.10147 7.01782,0 10.51051,0c5.00501,0 10.01001,0 15.01502,0c2.36904,0 4.78707,0.51189 7.10705,0.03228c1.54995,-0.32042 2.94316,-1.24227 4.5045,-1.5015c1.42408,-0.23644 2.91161,0.29997 4.33058,0.0346c2.01208,-0.3763 3.62684,-1.89989 5.46235,-2.80595c7.85068,-3.8753 12.24798,-12.80951 19.28409,-17.88389c2.25973,-1.6297 5.19731,-2.00955 7.80602,-2.98777c4.21746,-1.58148 8.39837,-3.23434 12.59419,-4.87269c12.1173,-0.10982 25.36896,-1.59063 37.15047,1.54014c5.89678,1.56699 11.09963,4.68224 16.10435,8.07313c1.55703,1.05495 3.34083,1.84658 4.6477,3.19912c3.67289,3.80123 3.41622,9.69398 4.97948,14.31279c1.35328,3.99841 3.81602,7.89474 5.48661,11.79122c0.45484,1.24694 0.42981,2.79844 1.36451,3.74082c0.7814,0.78782 2.11401,0.71462 3.21219,0.87349c3.12543,0.45215 9.10613,0.90495 11.63209,-1.04792c2.1712,-1.67859 3.50022,-5.17071 5.96804,-6.27279c2.48499,-1.10975 10.56406,-0.21908 13.53094,-0.21908c11.19976,0 22.69011,-0.90042 32.43486,5.92694c2.92353,2.04828 5.09143,5.00476 7.65004,7.49394c1.75238,7.1149 1.45414,13.82644 1.45414,21.12116c0,4.65438 0.09976,9.22212 -0.41248,13.85075c-0.11138,1.00639 -1.09216,10.18962 -1.33577,10.74573c-0.6253,1.42745 -2.30053,2.12956 -3.22816,3.38181c-0.66617,0.89929 -0.82001,2.11527 -1.5015,3.003c-0.7498,0.97672 -2.21049,1.3776 -2.72141,2.49794c-0.42298,0.92751 0.16622,2.03318 0.1903,3.0523c0.06303,2.66692 0,5.33534 0,8.003c0,8.50851 0,17.01702 0,25.52553c0,4.78297 0.36565,9.75381 0,14.51952c-0.08648,1.12711 -0.87233,2.22438 -0.63916,3.33049c0.0917,0.43499 0.79365,-0.55394 1.23524,-0.50277c1.61098,0.18668 3.12001,0.90947 4.71688,1.19251c1.3219,0.2343 2.93287,-0.44416 4.01187,0.35464c1.40788,1.04228 2.14967,2.86795 2.6203,4.55525c0.06278,0.22507 0.07709,6.84722 0.06688,8.08189c-0.01401,1.69305 0.25665,3.41698 -0.06688,5.07889c-0.21918,1.1259 -1.22038,1.97942 -1.52258,3.08593c-0.30796,1.12759 0.16468,2.41282 -0.27501,3.49586c-0.50506,1.24406 -3.60074,5.50033 -4.80083,7.1806c-2.89778,4.05725 -5.55545,7.92094 -9.08195,11.45501c-0.9506,0.95264 -6.15897,6.17547 -6.45945,6.36487c-1.45103,0.91461 -3.24142,1.12305 -4.86212,1.68457c-3.38847,1.70259 -6.88454,3.25492 -9.88225,5.62966c-2.17998,1.72695 -3.8611,4.00731 -5.89235,5.90696c-4.46698,4.17755 -9.30275,7.53429 -13.13949,12.3396c-2.91122,3.64615 -7.25364,7.56132 -8.70787,12.13592c-1.76024,5.53722 -1.3968,11.59562 -1.37468,17.30986c0.02516,6.49855 -0.14119,12.62141 1.53252,18.93161c1.39187,2.68813 2.14103,5.81971 4.16713,8.06876c1.98664,2.20524 7.37762,4.4409 10.21821,4.9903c2.39857,0.46391 5.08294,0.51614 7.06733,1.94111c4.53701,3.25801 7.43045,8.24606 10.95158,12.41864c2.09878,2.48708 4.44459,4.18417 6.50927,6.74793c2.0862,2.5905 3.46985,5.69489 5.53326,8.30359c1.02577,1.29685 2.67571,2.13497 3.37935,3.63127c0.56233,1.19581 0.1542,2.63878 0.1903,3.95971c0.12292,4.49733 0,9.01477 0,13.51351c0,10.84585 0,21.69169 0,32.53754c0,5.02881 -1.13105,11.66444 -0.04002,16.56645c0.31001,1.39291 1.27187,2.60062 1.5015,4.00901c0.6595,4.04485 0.04002,8.82312 0.04002,12.95306c0,0 0,2.5 -2.5,2.5c-0.17879,0 -0.34479,-0.01279 -0.49892,-0.03653z" fill="#0c8600"/><path d="M-230.73076,50.40542c0.15599,-0.0244 0.32418,-0.03755 0.50552,-0.03755c2.5,0 2.5,2.5 2.5,2.5c-0.05155,1.87192 0.98044,3.61491 1.43462,5.43162c0.405,1.62001 -0.68872,3.45347 0.83615,4.81262c1.51315,1.34871 3.75424,1.56677 5.49306,2.60849c1.53317,0.91852 3.04016,1.8907 4.4592,2.97725c0.48299,0.36982 0.63936,1.15822 1.21154,1.36478c2.15607,0.77837 5.23334,-1.06391 6.85422,0.55698c0.73774,0.73774 1.1074,8.29821 0.26034,9.23555c-1.39187,1.54021 -3.80278,1.6706 -5.74204,2.41143c-3.19741,1.22148 -7.43497,3.75019 -10.7267,4.56592c-0.34537,0.08559 -5.93731,0.06688 -6.58039,0.06688c-2.20596,0 -9.25005,0.79449 -10.77678,-0.73223c-0.96002,-0.96002 -0.73223,-8.10338 -0.73223,-9.27527c0,-8.00801 0,-16.01602 0,-24.02402c0,-1.52007 -0.15186,-6.98297 0.73223,-7.77377c2.44914,-2.19072 8.31015,-0.28353 9.9004,1.95494c0.65593,0.92329 0.4363,2.16815 0.37085,3.35639z" fill="#ff0000"/><path d="M-323.02439,46.08264l1.59103,-1.45685c2.51152,-1.20281 9.25316,-3.67485 11.89481,-1.0332c2.59724,2.59724 0.22611,9.42333 -1.0332,11.89481c-0.62803,1.23256 -1.00931,2.6572 -1.9698,3.65274c-0.77706,0.80541 -2.20737,0.71443 -3.003,1.5015c-0.70355,0.69598 -0.63854,1.91201 -1.24116,2.69701c-1.02459,1.33467 -2.23669,2.54209 -3.56933,3.56933c-0.8249,0.63585 -2.01596,0.68665 -2.81643,1.35301c-0.70152,0.58399 -0.79115,1.73783 -1.53387,2.26844c-1.68382,1.20294 -3.6974,1.85972 -5.54611,2.78958c-4.61039,0.08619 -9.48834,0.50012 -14.0879,0.06688c-1.60179,-0.15088 -3.63312,0.40542 -4.77077,-0.73223c-1.13765,-1.13765 -0.58136,-3.16898 -0.73223,-4.77077c-0.34521,-3.66488 -0.57069,-8.49655 2.68717,-11.13564c0.77782,-0.63008 2.16476,0.54713 3.003,0c0.79394,-0.51821 0.37766,-1.97374 1.04806,-2.64414c0.6704,-0.6704 2.11824,-0.2592 2.64414,-1.04806c0.64253,-0.9638 -0.50005,-2.67926 0.35886,-3.45644c1.05017,-0.95024 2.84042,-0.25649 4.19639,-0.66536c1.04449,-0.31494 1.86031,-1.21685 2.919,-1.48013c1.43591,-0.35708 2.96615,-0.10139 4.42539,-0.34626c1.84555,-0.3097 3.6836,-0.75893 5.53594,-1.02421z" fill="#ff0000"/><path d="M-320.31533,217.03454c8.00801,0 16.01602,0 24.02402,0c3.98258,0 9.06696,0.81687 12.93913,0.06688c0.91103,-0.17646 1.63393,-0.88044 2.45935,-1.30445c1.88401,-0.96779 3.93504,-1.63977 5.69497,-2.81822c3.18608,-2.1334 5.92628,-5.39047 9.86369,-6.38784c1.23623,-0.31315 7.72663,0.04383 8.34816,0.66536c1.13765,1.13765 0.48816,3.18051 0.73223,4.77077c0,0.62504 0.01871,6.25651 -0.06688,6.58039c-0.72072,2.72738 -3.20989,4.64189 -4.90952,6.8934c-0.75288,0.99734 -0.87824,2.42539 -1.76184,3.30899c-0.8836,0.8836 -2.31166,1.00896 -3.30899,1.76184c-2.25151,1.69963 -4.16602,4.1888 -6.8934,4.90952c-0.32388,0.08559 -5.95535,0.06688 -6.58039,0.06688c-3.5035,0 -7.00701,0 -10.51051,0c-5.81775,0 -11.70227,0.81149 -17.05482,-1.5015c-2.32307,0 -4.64614,0 -6.96921,0c-1.2994,0 -6.54853,0.08625 -7.32033,-0.37337c-1.11378,-0.66327 -1.02952,-2.4541 -1.95494,-3.36186c-0.79894,-0.7837 -2.21188,-0.70991 -3.003,-1.5015c-0.76973,-0.77018 -0.60607,-2.22641 -1.43193,-2.93607c-1.02897,-0.88419 -2.82364,-0.56171 -3.76994,-1.53387c-1.12101,-1.15164 -1.9931,-2.61208 -2.49632,-4.15742c-0.52082,-0.23784 -1.04298,-0.47167 -1.57115,-0.68764l0.30807,-1.46178h-0.77996v-3.003c0,-1.38071 1.11929,-2.5 2.5,-2.5c0.99801,0 1.85943,0.58479 2.26029,1.43041l1.42298,2.84595c3.26378,0.37103 6.51439,0.22815 9.83025,0.22815z" fill="#ff0000"/><path d="M-248.7466,263.02757c7.19706,3.53515 15.42079,7.23915 20.47672,13.52357c0.12356,0.15358 3.10083,5.99091 3.28372,6.42993c0.26623,0.63909 -0.02515,1.65767 0.57976,1.99441c0.87462,0.48687 2.30552,-0.718 3.003,0c1.47053,1.51377 3.10626,3.72164 2.60342,5.7713c-0.51445,2.09701 -3.35696,2.71657 -5.02273,4.09035c-0.83522,0.68882 -1.45971,1.7351 -2.47997,2.09722c-1.9954,0.70824 -4.30401,-0.43233 -6.35117,0.10838c-1.08205,0.28579 -1.91434,1.24203 -3.003,1.5015c-0.3591,0.08559 -5.92579,0.06688 -6.58039,0.06688c-3.98479,0 -8.03308,0.20295 -12.01201,0c-1.44261,-0.07358 -3.13976,0.4632 -4.31733,-0.37337c-3.11389,-2.21217 -2.65638,-5.10306 -2.68717,-8.13263c-0.0712,-7.00534 0,-14.01527 0,-21.02102c0,-1.57811 -0.15186,-6.88968 0.73223,-7.77377c0.88409,-0.88409 6.19567,-0.73223 7.77377,-0.73223h1.5015c0,0 2.46621,0 2.49966,2.44949z" fill="#ff0000"/><path d="M-264.75977,-39.72222c2.5,0 2.5,2.5 2.5,2.5c0,1.72157 0,7.94764 0,9.66921c0.54151,0.20422 1.07207,0.6488 1.37321,1.55223c0.60034,1.80103 -0.62286,2.69028 -1.24628,3.01395c0.2776,1.80599 1.04893,3.59411 2.83428,4.47593c1.51013,0.74589 3.365,-0.1903 5.0493,-0.1903c4.67288,0 13.96676,-1.78186 17.14164,2.68717c0.45962,0.64697 0.37337,6.10744 0.37337,7.32033c0,4.67288 1.78186,13.96676 -2.68717,17.14164c-1.17757,0.83657 -2.87472,0.29979 -4.31733,0.37337c-2.98146,0.15207 -6.02324,0 -9.00901,0c-5.00501,0 -10.01001,0 -15.01502,0c-1.21289,0 -6.67336,0.08625 -7.32033,-0.37337c-1.42803,-1.0145 -2.07072,-2.89199 -2.6203,-4.55525c-0.08559,-0.25903 -0.06688,-6.00978 -0.06688,-6.58039c0,-4.97055 -1.3578,-12.78261 1.28997,-17.20953c2.20654,-3.68919 5.57379,-5.30939 9.22054,-6.6029c0,-2.07254 0,-4.14507 0,-6.21761v-4.5045c0,0 0,-2.5 2.5,-2.5z" fill="#ff0000"/><path d="M-324.22325,136.2195c0.22744,-0.6241 0.63865,-1.03531 0.63865,-1.03531l0.76927,0.26627c0,-0.64307 -0.01871,-6.23502 0.06688,-6.58039c0.24601,-0.99273 3.23988,-6.40484 3.66836,-7.19939c1.3988,-0.72229 2.68334,-1.73209 4.19639,-2.16686c1.14629,-0.32938 2.38478,-0.05476 3.57739,-0.06688c2.82513,-0.02871 6.86144,-0.60766 9.58339,0.06688c0.32456,0.08043 5.98702,2.90662 6.54966,3.20006c1.22654,0.6397 2.6572,1.00931 3.65274,1.9698c0.80541,0.77706 0.72854,2.19366 1.5015,3.003c0.59169,0.61954 1.58129,0.66175 2.35327,1.0332c2.96333,1.42586 5.54097,2.49028 7.19767,5.78386c0.5938,1.1805 0.1542,2.63878 0.1903,3.95971c0.1212,4.43429 0.34838,9.10061 0,13.51351c-0.16566,2.09843 0.56818,4.61704 -0.73223,6.27227c-1.16927,1.48831 -8.82058,0.73223 -10.77678,0.73223c-7.00701,0 -14.01401,0 -21.02102,0c-1.54076,0 -7.97801,0.03486 -8.46422,-0.1903c-1.86333,-0.8629 -3.37096,-2.55424 -4.35599,-4.35599c-1.04848,-1.91779 -0.1903,-7.69358 -0.1903,-9.96572c0,-1.2994 -0.08625,-6.54853 0.37337,-7.32033c0.26909,-0.45187 0.71925,-0.71113 1.22171,-0.91963z" fill="#ff0000"/><path d="M-360.9123,269.58752c-0.50708,-0.35429 -0.94207,-0.96212 -0.94207,-2.00493c0,-2.5 2.5,-2.5 2.5,-2.5h3.003c3.93946,0 8.09224,-0.36921 12.01201,0c1.60179,0.15088 3.63312,-0.40542 4.77077,0.73223c1.52672,1.52672 0.73223,8.57082 0.73223,10.77678c0,3.92359 0.77048,8.78051 -0.06688,12.58639c-0.9762,4.43694 -2.40796,3.57957 -4.90952,6.8934c-0.75288,0.99734 -0.84178,2.46342 -1.76184,3.30899c-3.12797,2.87473 -5.38928,2.22027 -9.27527,2.23373c-3.58888,0.01244 -8.15173,0.50652 -11.03711,-2.53973c-0.55824,-0.58936 -0.48451,-6.22622 -0.47189,-7.46778c0.01212,-1.19261 -0.20964,-2.41721 0.06688,-3.57739c0.25947,-1.08866 1.22516,-1.9185 1.5015,-3.003c0.22021,-0.86423 -0.13553,-1.78679 -0.05471,-2.67496c0.31847,-3.49998 1.50507,-6.69945 1.48933,-10.26417c0,0 0,-2.46224 2.44357,-2.49957z" fill="#ff0000"/><path d="M-338.52052,188.62813c-1.0254,0.71807 -2.53132,-0.0082 -3.74295,0.3065c-2.16642,0.56269 -3.83937,2.44112 -6.00601,3.003c-0.96895,0.25128 -2.02938,-0.23251 -3.003,0c-2.17709,0.5199 -3.83342,2.46461 -6.00601,3.003c-0.34537,0.08559 -5.93731,0.06688 -6.58039,0.06688c-4.004,0 -8.00801,0 -12.01201,0c-2.5025,0 -5.00825,0.12747 -7.50751,0c-1.44261,-0.07358 -3.13976,0.4632 -4.31733,-0.37337c-3.15236,-2.2395 -2.63019,-5.08445 -2.68717,-8.13263c0,-5.00501 0,-10.01001 0,-15.01502c0,-0.64307 -0.01871,-6.23502 0.06688,-6.58039c0.09439,-0.38087 2.8947,-5.93894 3.20006,-6.54966c0.4026,-0.8052 3.09328,-6.26392 3.4713,-6.65574c0.77706,-0.80541 2.19366,-0.72854 3.003,-1.5015c1.74594,-1.66746 1.29535,-5.28857 3.45644,-6.36487c7.81293,-3.89109 8.34156,4.88286 8.3353,10.30741c1.48503,0.56313 1.48503,2.32972 1.48503,2.32972c-0.18512,3.93219 2.56338,4.65065 4.15193,7.72895c0.71984,1.39491 0.70858,3.10357 1.4807,4.47024c1.69728,3.00422 2.84064,1.87115 5.34115,3.79073c0.97672,0.7498 1.42221,2.12224 2.49794,2.72141c0.59847,0.33334 1.36174,-0.1645 2.04629,-0.1903c2.95162,-0.11124 6.05933,-0.15045 9.00901,0c1.44261,0.07358 3.13976,-0.4632 4.31733,0.37337c1.42803,1.0145 1.74686,3.03683 2.6203,4.55525l0.0577,3.0862c0.05759,0.39793 0.00598,0.77485 -0.06546,1.06373c-0.06937,0.30845 -0.20319,0.69576 -0.46137,1.04213c-0.62953,1.25345 -1.0246,2.72605 -2.15116,3.51496z" fill="#ff0000"/><path d="M-370.86338,-16.6662c-0.41189,-0.4123 -0.69691,-0.69788 -0.76927,-0.77023c0,0 -1.76777,-1.76777 0,-3.53553c0.91408,-0.91408 1.82815,-0.88285 2.49783,-0.63952c0.22624,-0.05922 0.4821,-0.09271 0.77144,-0.09271c2.5,0 2.5,2.5 2.5,2.5v0.63071c1.08562,1.19532 2.18752,2.37178 3.46628,3.34719c1.47184,1.12268 5.65692,2.22532 6.90563,2.68365c3.79673,1.39357 8.44415,2.85652 12.10883,4.54227c1.47263,0.67741 3.1911,1.20709 4.17292,2.49687c0.57688,0.75783 -0.75459,2.16514 -0.09852,2.85556c0.80245,0.84446 2.34134,0.24728 3.43311,0.65358c1.35175,0.50305 2.76805,1.05038 3.81406,2.04343c0.81164,0.77055 0.77057,2.15551 1.5015,3.003c2.41661,2.80199 6.02236,-0.77557 9.00901,3.003c6.38625,8.07959 -3.22534,8.74914 -8.70089,8.70539c-1.001,0.5005 -1.91434,1.24203 -3.003,1.5015c-2.00388,0.47761 -4.16258,-0.38245 -6.17993,0.0346c-1.54995,0.32042 -2.9424,1.24687 -4.5045,1.5015c-4.8147,0.78482 -10.53544,0.03228 -15.41547,0.03228c-1.9562,0 -9.6075,0.75608 -10.77678,-0.73223c-0.8483,-1.07976 -0.73223,-7.1094 -0.73223,-9.27527c0,-8.00801 0,-16.01602 0,-24.02402z" fill="#ff0000"/><path d="M-424.52051,-20.04843c2.07608,0.24507 4.13093,0.77358 6.06279,1.53753c0.91782,0.36295 1.66207,1.14317 2.62068,1.37808c0.97224,0.23825 2.04448,-0.2885 3.003,0c1.50747,0.45372 2.79759,1.44457 4.19639,2.16686c0.72229,1.3988 1.79827,2.66587 2.16686,4.19639c0.39641,1.64605 0.05506,3.38582 0.06688,5.07889c0.03843,5.5075 0.1601,10.57476 -1.65679,15.88238c-0.84742,2.47555 -2.21868,4.76419 -2.93147,7.28181c-0.71329,2.51941 -0.69734,6.35285 -1.93098,8.38332c-0.63476,1.04476 -2.33755,0.90787 -3.222,1.75178c-0.59779,0.57039 -0.67243,1.50963 -0.99384,2.27081c-2.17678,5.15522 -4.50381,13.87217 -10.32773,16.28914c-1.68238,0.6982 -3.64016,0.14936 -5.46121,0.1903c-2.67346,0.06011 -6.84936,0.64958 -9.40946,-0.03228c-2.13394,-0.56836 -4.0881,-1.67163 -6.13215,-2.50744c-0.87525,-8.28104 -1.23469,-17.43378 -0.45973,-25.73214c0.2373,-2.54101 1.23439,-4.96946 1.5015,-7.50751c0.16861,-1.6021 -0.27522,-3.25574 0.05471,-4.83254c0.75196,-3.59378 3.76714,-6.76341 5.57681,-9.77951c0.85786,-1.42976 1.40027,-3.03183 2.23719,-4.47395c1.90158,-3.27668 4.47988,-6.09541 7.15808,-8.78844c-0.01564,-0.12793 -0.02395,-0.26368 -0.02395,-0.40774c0,-2.5 2.5,-2.5 2.5,-2.5h0.46134c0.25917,-0.25637 0.51731,-0.51269 0.77389,-0.76927c0,0 1.76777,-1.76777 3.53553,0c0.31106,0.31106 0.51265,0.62211 0.63366,0.92354z" fill="#ff0000"/><path d="M-431.42644,117.93544c2.20244,0 2.46458,1.9403 2.49578,2.40218c0.82377,0.35479 1.63978,0.72021 2.27499,1.33306c0.80541,0.77706 0.71014,2.21164 1.5015,3.003c0.79136,0.79136 2.21164,0.71014 3.003,1.5015c0.79136,0.79136 0.71026,2.21152 1.5015,3.003c0.77577,0.776 2.16873,0.68658 2.95357,1.45341c0.92332,0.90213 1.30351,2.22852 1.95527,3.34279c1.4022,0.94152 3.02426,1.61846 4.2066,2.82457c0.74877,0.76383 0.64231,2.12984 1.39507,2.88974c0.69646,0.70307 1.91201,0.63854 2.69701,1.24116c2.4543,1.8841 4.66235,4.38126 5.47585,7.45973c0.68829,2.60465 0.06688,5.38783 0.06688,8.08189c0,5.70123 1.13916,12.6912 -1.87487,17.83084c-1.82157,3.10621 -5.65374,5.24618 -7.90511,8.0912c-1.23698,1.56315 -1.88882,3.71243 -3.55238,4.81067c-1.16644,0.77005 -2.78613,0.23832 -4.18265,0.29581c-3.98764,0.16416 -8.02055,0 -12.01201,0c-3.04818,-0.05698 -5.89313,0.46519 -8.13263,-2.68717c-0.83657,-1.17757 -0.31229,-2.87414 -0.37337,-4.31733c-0.16874,-3.9869 0,-8.02012 0,-12.01201c0,-8.00801 0,-16.01602 0,-24.02402c0,-3.95683 -0.63564,-8.74437 0.06688,-12.58639c0.2013,-1.1009 1.21571,-1.92096 1.5015,-3.003c0.20681,-0.783 -0.04459,-1.61908 -0.06688,-2.42862c0,0 0,-0.2781 0.09275,-0.64879c-0.32012,-0.98815 0.17118,-1.97075 0.17118,-1.97075c0.80775,-1.3372 1.11372,-3.15971 2.42324,-4.0116c0.13219,-0.086 0.26983,-0.15618 0.41202,-0.21315c0.12075,-0.30328 0.32294,-0.61639 0.63604,-0.92949c0.91408,-0.91408 1.82815,-0.88285 2.49783,-0.63952c0.22624,-0.05922 0.4821,-0.09271 0.77144,-0.09271z" fill="#ff0000"/><path d="M-430.42794,246.56156c0,2.5 -2.5,2.5 -2.5,2.5h-0.37297c4.50831,3.54548 8.66542,7.79921 11.5086,12.70219c0.82572,1.42392 1.3066,3.03883 2.20266,4.41956c0.97622,1.50424 2.60718,2.56682 3.38114,4.18445c1.0341,2.16135 0.13362,4.83003 0.7287,7.15095c0.27796,1.08409 1.24203,1.91434 1.5015,3.003c0.27773,1.16528 0.00394,7.82233 -0.66536,8.34816c-1.65523,1.30041 -4.17384,0.56657 -6.27227,0.73223c-5.42629,0.42838 -11.07725,0 -16.51652,0c-1.23515,0 -6.64124,0.08625 -7.32033,-0.37337c-3.75776,-2.5433 -4.02129,-10.13226 -4.18717,-14.05197c-0.45425,-10.73342 -0.023,-21.58354 -0.00227,-32.33554c-0.04002,-0.01591 -0.07964,-0.03241 -0.11877,-0.04959c0,0 -2.23607,-1.11803 -1.11803,-3.3541c0.81256,-1.62513 2.21569,-1.47859 2.92175,-1.2772c0.23702,-0.06671 0.50739,-0.10476 0.81582,-0.10476c1.43793,0 2.0488,0.82705 2.30832,1.52977c0.3468,0.19842 0.67251,0.42568 0.96095,0.70397c0.80541,0.77706 0.77057,2.15551 1.5015,3.003c1.39076,1.61254 5.51717,0.76927 7.24124,0.76927h1.5015c0,0 2.5,0 2.5,2.5z" fill="#ff0000"/><path d="M233.7353,350.12113c0.00918,3.18282 0.02826,6.36656 -0.00408,9.54854c-0.03213,3.16134 0.39562,5.14442 -2.23373,7.77377c-3.60932,3.60932 -10.7387,2.23373 -15.28128,2.23373c-11.01101,0 -22.02202,0 -33.03303,0c-5.35826,0 -11.77146,0.8526 -17.01792,-0.0508c-1.25516,-0.21613 -2.26026,-1.27458 -3.51351,-1.5015c-3.11559,-0.56412 -6.33235,0.0508 -9.4986,0.0508c-4.35435,0 -8.70871,0 -13.06306,0c-17.85216,0 -35.72851,0.2668 -53.57739,-0.06688c-6.25086,-3.12543 -13.83914,-0.80673 -20.69298,-1.44679c-2.54101,-0.2373 -4.97093,-1.22078 -7.50751,-1.5015c-9.48656,-1.04989 -19.73491,0.01217 -29.28819,0.01217c-3.18783,0 -8.30347,0.68159 -11.51355,-0.05206c-1.31468,-0.30046 -2.39557,-1.32591 -3.71609,-1.59956c-3.16367,-0.6556 -6.46181,-0.58293 -9.59534,-1.37011c-12.74207,0.08799 -25.49551,0.09932 -38.23809,0.01873c-5.32914,-0.0337 -10.50558,-0.46116 -13.3157,-6.0478c-0.26238,-0.52162 -0.1903,-8.24904 -0.1903,-8.46422c0,-6.50651 0,-13.01301 0,-19.51952c0,-9.00901 0,-18.01802 0,-27.02703c0,-3.21978 -0.59159,-7.70194 0.03228,-10.91097c0.31671,-1.62908 1.11443,-3.12996 1.54926,-4.73157c1.16044,-4.27424 1.09466,-8.59454 1.73761,-12.90839c0.24258,-1.62757 0.97657,-3.15781 1.20409,-4.78756c0.7015,-5.02511 -0.01873,-10.6269 -0.01873,-15.71556c0,-23.59815 0.9412,-47.38899 0.00207,-70.96442c-0.12547,-3.14965 -1.13563,-6.20626 -1.48756,-9.33869c-0.03256,-0.28984 -0.00851,-9.5025 -0.00749,-10.07627c-0.17234,-1.0204 -1.46262,-8.62995 -1.5015,-9.00901c-0.34028,-3.31765 0.62252,-7.00853 0.03151,-10.27115c-0.25435,-1.40414 -1.27187,-2.60062 -1.5015,-4.00901c-0.74659,-4.57903 0.31314,-9.62138 -0.03151,-14.24836c-0.21438,-2.87816 -0.71635,-5.74191 -1.41755,-8.54157c-0.67137,-2.68053 -2.47597,-5.00541 -3.05036,-7.70838c-0.81227,-3.82238 -0.04511,-8.57441 -0.04511,-12.4998c0,-7.5025 0,-15.00501 0,-22.50751c0,-9.50951 0,-19.01902 0,-28.52853c0,-3.09183 0.84322,-6.99682 0.06688,-9.93613c-0.28579,-1.08205 -1.2883,-1.90435 -1.5015,-3.003c-0.5284,-2.72285 -0.5415,-10.44025 0,-13.16078c0.24195,-1.21559 1.14936,-2.20092 1.61106,-3.35115c0.97768,-2.43568 1.302,-5.09971 2.26844,-7.53988c2.07156,-5.23048 4.39582,-10.32748 6.94106,-15.38018c2.78715,-3.7027 5.20888,-7.60679 9.19666,-10.20657c1.37262,-0.89486 3.13421,-1.08372 4.48612,-2.00955c3.17953,-2.17742 6.4673,-6.5447 9.19504,-9.25261c2.66665,-2.64726 4.13674,-7.16926 8.11351,-8.14932c4.17367,-1.02859 10.28365,-0.09042 14.67528,-0.09042c0.96118,0 6.44301,-0.04805 6.96271,0.1903c1.28675,0.59014 1.70221,2.44448 3.003,3.003c1.08823,0.46725 2.364,-0.15591 3.5478,-0.1903c3.49278,-0.10147 7.01782,0 10.51051,0c5.00501,0 10.01001,0 15.01502,0c2.36904,0 4.78707,0.51189 7.10705,0.03228c1.54995,-0.32042 2.94316,-1.24227 4.5045,-1.5015c1.42408,-0.23644 2.91161,0.29997 4.33058,0.0346c2.01208,-0.3763 3.62684,-1.89989 5.46235,-2.80595c7.85068,-3.8753 12.24798,-12.80951 19.28409,-17.88389c2.25973,-1.6297 5.19731,-2.00955 7.80602,-2.98777c4.21746,-1.58148 8.39837,-3.23434 12.59419,-4.87269c12.1173,-0.10982 25.36896,-1.59063 37.15047,1.54014c5.89678,1.56699 11.09963,4.68224 16.10435,8.07313c1.55703,1.05495 3.34083,1.84658 4.6477,3.19912c3.67289,3.80123 3.41622,9.69398 4.97948,14.31279c1.35328,3.99841 3.81602,7.89474 5.48661,11.79122c0.45484,1.24694 0.42981,2.79844 1.36451,3.74082c0.7814,0.78782 2.11401,0.71462 3.21219,0.87349c3.12543,0.45215 9.10613,0.90495 11.63209,-1.04792c2.1712,-1.67859 3.50022,-5.17071 5.96804,-6.27279c2.48499,-1.10975 10.56406,-0.21908 13.53094,-0.21908c11.19976,0 22.69011,-0.90042 32.43486,5.92694c2.92353,2.04828 5.09143,5.00476 7.65004,7.49394c1.75238,7.1149 1.45414,13.82644 1.45414,21.12116c0,4.65438 0.09976,9.22212 -0.41248,13.85075c-0.11138,1.00639 -1.09216,10.18962 -1.33577,10.74573c-0.6253,1.42745 -2.30053,2.12956 -3.22816,3.38181c-0.66617,0.89929 -0.82001,2.11527 -1.5015,3.003c-0.7498,0.97672 -2.21049,1.3776 -2.72141,2.49794c-0.42298,0.92751 0.16622,2.03318 0.1903,3.0523c0.06303,2.66692 0,5.33534 0,8.003c0,8.50851 0,17.01702 0,25.52553c0,4.78297 0.36565,9.75381 0,14.51952c-0.08648,1.12711 -0.87233,2.22438 -0.63916,3.33049c0.0917,0.43499 0.79365,-0.55394 1.23524,-0.50277c1.61098,0.18668 3.12001,0.90947 4.71688,1.19251c1.3219,0.2343 2.93287,-0.44416 4.01187,0.35464c1.40788,1.04228 2.14967,2.86795 2.6203,4.55525c0.06278,0.22507 0.07709,6.84722 0.06688,8.08189c-0.01401,1.69305 0.25665,3.41698 -0.06688,5.07889c-0.21918,1.1259 -1.22038,1.97942 -1.52258,3.08593c-0.30796,1.12759 0.16468,2.41282 -0.27501,3.49586c-0.50506,1.24406 -3.60074,5.50033 -4.80083,7.1806c-2.89778,4.05725 -5.55545,7.92094 -9.08195,11.45501c-0.9506,0.95264 -6.15897,6.17547 -6.45945,6.36487c-1.45103,0.91461 -3.24142,1.12305 -4.86212,1.68457c-3.38847,1.70259 -6.88454,3.25492 -9.88225,5.62966c-2.17998,1.72695 -3.8611,4.00731 -5.89235,5.90696c-4.46698,4.17755 -9.30275,7.53429 -13.13949,12.3396c-2.91122,3.64615 -7.25364,7.56132 -8.70787,12.13592c-1.76024,5.53722 -1.3968,11.59562 -1.37468,17.30986c0.02516,6.49855 -0.14119,12.62141 1.53252,18.93161c1.39187,2.68813 2.14103,5.81971 4.16713,8.06876c1.98664,2.20524 7.37762,4.4409 10.21821,4.9903c2.39857,0.46391 5.08294,0.51614 7.06733,1.94111c4.53701,3.25801 7.43045,8.24606 10.95158,12.41864c2.09878,2.48708 4.44459,4.18417 6.50927,6.74793c2.0862,2.5905 3.46985,5.69489 5.53326,8.30359c1.02577,1.29685 2.67571,2.13497 3.37935,3.63127c0.56233,1.19581 0.1542,2.63878 0.1903,3.95971c0.12292,4.49733 0,9.01477 0,13.51351c0,10.84585 0,21.69169 0,32.53754c0,5.02881 -1.13105,11.66444 -0.04002,16.56645c0.31001,1.39291 1.27187,2.60062 1.5015,4.00901c0.6595,4.04485 0.04002,8.82312 0.04002,12.95306c0,0 0,2.5 -2.5,2.5c-0.17879,0 -0.34479,-0.01279 -0.49892,-0.03653z" fill="#0c8600"/><path d="M191.68666,97.44746c0.15599,-0.0244 0.32418,-0.03755 0.50552,-0.03755c2.5,0 2.5,2.5 2.5,2.5c-0.05155,1.87192 0.98044,3.61491 1.43462,5.43162c0.405,1.62001 -0.68872,3.45347 0.83615,4.81262c1.51315,1.34871 3.75424,1.56677 5.49306,2.60849c1.53317,0.91852 3.04016,1.8907 4.4592,2.97725c0.48299,0.36982 0.63936,1.15822 1.21154,1.36478c2.15607,0.77837 5.23334,-1.06391 6.85422,0.55698c0.73774,0.73774 1.1074,8.29821 0.26034,9.23555c-1.39187,1.54021 -3.80278,1.6706 -5.74204,2.41143c-3.19741,1.22148 -7.43497,3.75019 -10.7267,4.56592c-0.34537,0.08559 -5.93731,0.06688 -6.58039,0.06688c-2.20596,0 -9.25005,0.79449 -10.77678,-0.73223c-0.96002,-0.96002 -0.73223,-8.10338 -0.73223,-9.27527c0,-8.00801 0,-16.01602 0,-24.02402c0,-1.52007 -0.15186,-6.98297 0.73223,-7.77377c2.44914,-2.19072 8.31015,-0.28353 9.9004,1.95494c0.65593,0.92329 0.4363,2.16815 0.37085,3.35639z" fill="#ff0000"/><path d="M99.39303,93.12468l1.59103,-1.45685c2.51152,-1.20281 9.25316,-3.67485 11.89481,-1.0332c2.59724,2.59724 0.22611,9.42333 -1.0332,11.89481c-0.62803,1.23256 -1.00931,2.6572 -1.9698,3.65274c-0.77706,0.80541 -2.20737,0.71443 -3.003,1.5015c-0.70355,0.69598 -0.63854,1.91201 -1.24116,2.69701c-1.02459,1.33467 -2.23669,2.54209 -3.56933,3.56933c-0.8249,0.63585 -2.01596,0.68665 -2.81643,1.35301c-0.70152,0.58399 -0.79115,1.73783 -1.53387,2.26844c-1.68382,1.20294 -3.6974,1.85972 -5.54611,2.78958c-4.61039,0.08619 -9.48834,0.50012 -14.0879,0.06688c-1.60179,-0.15088 -3.63312,0.40542 -4.77077,-0.73223c-1.13765,-1.13765 -0.58136,-3.16898 -0.73223,-4.77077c-0.34521,-3.66488 -0.57069,-8.49655 2.68717,-11.13564c0.77782,-0.63008 2.16476,0.54713 3.003,0c0.79394,-0.51821 0.37766,-1.97374 1.04806,-2.64414c0.6704,-0.6704 2.11824,-0.2592 2.64414,-1.04806c0.64253,-0.9638 -0.50005,-2.67926 0.35886,-3.45644c1.05017,-0.95024 2.84042,-0.25649 4.19639,-0.66536c1.04449,-0.31494 1.86031,-1.21685 2.919,-1.48013c1.43591,-0.35708 2.96615,-0.10139 4.42539,-0.34626c1.84555,-0.3097 3.6836,-0.75893 5.53594,-1.02421z" fill="#ff0000"/><path d="M102.10209,264.07658c8.00801,0 16.01602,0 24.02402,0c3.98258,0 9.06696,0.81687 12.93913,0.06688c0.91103,-0.17646 1.63393,-0.88044 2.45935,-1.30445c1.88401,-0.96779 3.93504,-1.63977 5.69497,-2.81822c3.18608,-2.1334 5.92628,-5.39047 9.86369,-6.38784c1.23623,-0.31315 7.72663,0.04383 8.34816,0.66536c1.13765,1.13765 0.48816,3.18051 0.73223,4.77077c0,0.62504 0.01871,6.25651 -0.06688,6.58039c-0.72072,2.72738 -3.20989,4.64189 -4.90952,6.8934c-0.75288,0.99734 -0.87824,2.42539 -1.76184,3.30899c-0.8836,0.8836 -2.31166,1.00896 -3.30899,1.76184c-2.25151,1.69963 -4.16602,4.1888 -6.8934,4.90952c-0.32388,0.08559 -5.95535,0.06688 -6.58039,0.06688c-3.5035,0 -7.00701,0 -10.51051,0c-5.81775,0 -11.70227,0.81149 -17.05482,-1.5015c-2.32307,0 -4.64614,0 -6.96921,0c-1.2994,0 -6.54853,0.08625 -7.32033,-0.37337c-1.11378,-0.66327 -1.02952,-2.4541 -1.95494,-3.36186c-0.79894,-0.7837 -2.21188,-0.70991 -3.003,-1.5015c-0.76973,-0.77018 -0.60607,-2.22641 -1.43193,-2.93607c-1.02897,-0.88419 -2.82364,-0.56171 -3.76994,-1.53387c-1.12101,-1.15164 -1.9931,-2.61208 -2.49632,-4.15742c-0.52082,-0.23784 -1.04298,-0.47167 -1.57115,-0.68764l0.30807,-1.46178h-0.77996v-3.003c0,-1.38071 1.11929,-2.5 2.5,-2.5c0.99801,0 1.85943,0.58479 2.26029,1.43041l1.42298,2.84595c3.26378,0.37103 6.51439,0.22815 9.83025,0.22815z" fill="#ff0000"/><path d="M173.67082,310.06961c7.19706,3.53515 15.42079,7.23915 20.47672,13.52357c0.12356,0.15358 3.10083,5.99091 3.28372,6.42993c0.26623,0.63909 -0.02515,1.65767 0.57976,1.99441c0.87462,0.48687 2.30552,-0.718 3.003,0c1.47053,1.51377 3.10626,3.72164 2.60342,5.7713c-0.51445,2.09701 -3.35696,2.71657 -5.02273,4.09035c-0.83522,0.68882 -1.45971,1.7351 -2.47997,2.09722c-1.9954,0.70824 -4.30401,-0.43233 -6.35117,0.10838c-1.08205,0.28579 -1.91434,1.24203 -3.003,1.5015c-0.3591,0.08559 -5.92579,0.06688 -6.58039,0.06688c-3.98479,0 -8.03308,0.20295 -12.01201,0c-1.44261,-0.07358 -3.13976,0.4632 -4.31733,-0.37337c-3.11389,-2.21217 -2.65638,-5.10306 -2.68717,-8.13263c-0.0712,-7.00534 0,-14.01527 0,-21.02102c0,-1.57811 -0.15186,-6.88968 0.73223,-7.77377c0.88409,-0.88409 6.19567,-0.73223 7.77377,-0.73223h1.5015c0,0 2.46621,0 2.49966,2.44949z" fill="#ff0000"/><path d="M157.65765,7.31982c2.5,0 2.5,2.5 2.5,2.5c0,1.72157 0,7.94764 0,9.66921c0.54151,0.20422 1.07207,0.6488 1.37321,1.55223c0.60034,1.80103 -0.62286,2.69028 -1.24628,3.01395c0.2776,1.80599 1.04893,3.59411 2.83428,4.47593c1.51013,0.74589 3.365,-0.1903 5.0493,-0.1903c4.67288,0 13.96676,-1.78186 17.14164,2.68717c0.45962,0.64697 0.37337,6.10744 0.37337,7.32033c0,4.67288 1.78186,13.96676 -2.68717,17.14164c-1.17757,0.83657 -2.87472,0.29979 -4.31733,0.37337c-2.98146,0.15207 -6.02324,0 -9.00901,0c-5.00501,0 -10.01001,0 -15.01502,0c-1.21289,0 -6.67336,0.08625 -7.32033,-0.37337c-1.42803,-1.0145 -2.07072,-2.89199 -2.6203,-4.55525c-0.08559,-0.25903 -0.06688,-6.00978 -0.06688,-6.58039c0,-4.97055 -1.3578,-12.78261 1.28997,-17.20953c2.20654,-3.68919 5.57379,-5.30939 9.22054,-6.6029c0,-2.07254 0,-4.14507 0,-6.21761v-4.5045c0,0 0,-2.5 2.5,-2.5z" fill="#ff0000"/><path d="M98.19417,183.26154c0.22744,-0.6241 0.63865,-1.03531 0.63865,-1.03531l0.76927,0.26627c0,-0.64307 -0.01871,-6.23502 0.06688,-6.58039c0.24601,-0.99273 3.23988,-6.40484 3.66836,-7.19939c1.3988,-0.72229 2.68334,-1.73209 4.19639,-2.16686c1.14629,-0.32938 2.38478,-0.05476 3.57739,-0.06688c2.82513,-0.02871 6.86144,-0.60766 9.58339,0.06688c0.32456,0.08043 5.98702,2.90662 6.54966,3.20006c1.22654,0.6397 2.6572,1.00931 3.65274,1.9698c0.80541,0.77706 0.72854,2.19366 1.5015,3.003c0.59169,0.61954 1.58129,0.66175 2.35327,1.0332c2.96333,1.42586 5.54097,2.49028 7.19767,5.78386c0.5938,1.1805 0.1542,2.63878 0.1903,3.95971c0.1212,4.43429 0.34838,9.10061 0,13.51351c-0.16566,2.09843 0.56818,4.61704 -0.73223,6.27227c-1.16927,1.48831 -8.82058,0.73223 -10.77678,0.73223c-7.00701,0 -14.01401,0 -21.02102,0c-1.54076,0 -7.97801,0.03486 -8.46422,-0.1903c-1.86333,-0.8629 -3.37096,-2.55424 -4.35599,-4.35599c-1.04848,-1.91779 -0.1903,-7.69358 -0.1903,-9.96572c0,-1.2994 -0.08625,-6.54853 0.37337,-7.32033c0.26909,-0.45187 0.71925,-0.71113 1.22171,-0.91963z" fill="#ff0000"/><path d="M61.50512,316.62956c-0.50708,-0.35429 -0.94207,-0.96212 -0.94207,-2.00493c0,-2.5 2.5,-2.5 2.5,-2.5h3.003c3.93946,0 8.09224,-0.36921 12.01201,0c1.60179,0.15088 3.63312,-0.40542 4.77077,0.73223c1.52672,1.52672 0.73223,8.57082 0.73223,10.77678c0,3.92359 0.77048,8.78051 -0.06688,12.58639c-0.9762,4.43694 -2.40796,3.57957 -4.90952,6.8934c-0.75288,0.99734 -0.84178,2.46342 -1.76184,3.30899c-3.12797,2.87473 -5.38928,2.22027 -9.27527,2.23373c-3.58888,0.01244 -8.15173,0.50652 -11.03711,-2.53973c-0.55824,-0.58936 -0.48451,-6.22622 -0.47189,-7.46778c0.01212,-1.19261 -0.20964,-2.41721 0.06688,-3.57739c0.25947,-1.08866 1.22516,-1.9185 1.5015,-3.003c0.22021,-0.86423 -0.13553,-1.78679 -0.05471,-2.67496c0.31847,-3.49998 1.50507,-6.69945 1.48933,-10.26417c0,0 0,-2.46224 2.44357,-2.49957z" fill="#ff0000"/><path d="M83.8969,235.67017c-1.0254,0.71807 -2.53132,-0.0082 -3.74295,0.3065c-2.16642,0.56269 -3.83937,2.44112 -6.00601,3.003c-0.96895,0.25128 -2.02938,-0.23251 -3.003,0c-2.17709,0.5199 -3.83342,2.46461 -6.00601,3.003c-0.34537,0.08559 -5.93731,0.06688 -6.58039,0.06688c-4.004,0 -8.00801,0 -12.01201,0c-2.5025,0 -5.00825,0.12747 -7.50751,0c-1.44261,-0.07358 -3.13976,0.4632 -4.31733,-0.37337c-3.15236,-2.2395 -2.63019,-5.08445 -2.68717,-8.13263c0,-5.00501 0,-10.01001 0,-15.01502c0,-0.64307 -0.01871,-6.23502 0.06688,-6.58039c0.09439,-0.38087 2.8947,-5.93894 3.20006,-6.54966c0.4026,-0.8052 3.09328,-6.26392 3.4713,-6.65574c0.77706,-0.80541 2.19366,-0.72854 3.003,-1.5015c1.74594,-1.66746 1.29535,-5.28857 3.45644,-6.36487c7.81293,-3.89109 8.34156,4.88286 8.3353,10.30741c1.48503,0.56313 1.48503,2.32972 1.48503,2.32972c-0.18512,3.93219 2.56338,4.65065 4.15193,7.72895c0.71984,1.39491 0.70858,3.10357 1.4807,4.47024c1.69728,3.00422 2.84064,1.87115 5.34115,3.79073c0.97672,0.7498 1.42221,2.12224 2.49794,2.72141c0.59847,0.33334 1.36174,-0.1645 2.04629,-0.1903c2.95162,-0.11124 6.05933,-0.15045 9.00901,0c1.44261,0.07358 3.13976,-0.4632 4.31733,0.37337c1.42803,1.0145 1.74686,3.03683 2.6203,4.55525l0.0577,3.0862c0.05759,0.39793 0.00598,0.77485 -0.06546,1.06373c-0.06937,0.30845 -0.20319,0.69576 -0.46137,1.04213c-0.62953,1.25345 -1.0246,2.72605 -2.15116,3.51496z" fill="#ff0000"/><path d="M51.55404,30.37584c-0.41189,-0.4123 -0.69691,-0.69788 -0.76927,-0.77023c0,0 -1.76777,-1.76777 0,-3.53553c0.91408,-0.91408 1.82815,-0.88285 2.49783,-0.63952c0.22624,-0.05922 0.4821,-0.09271 0.77144,-0.09271c2.5,0 2.5,2.5 2.5,2.5v0.63071c1.08562,1.19532 2.18752,2.37178 3.46628,3.34719c1.47184,1.12268 5.65692,2.22532 6.90563,2.68365c3.79673,1.39357 8.44415,2.85652 12.10883,4.54227c1.47263,0.67741 3.1911,1.20709 4.17292,2.49687c0.57688,0.75783 -0.75459,2.16514 -0.09852,2.85556c0.80245,0.84446 2.34134,0.24728 3.43311,0.65358c1.35175,0.50305 2.76805,1.05038 3.81406,2.04343c0.81164,0.77055 0.77057,2.15551 1.5015,3.003c2.41661,2.80199 6.02236,-0.77557 9.00901,3.003c6.38625,8.07959 -3.22534,8.74914 -8.70089,8.70539c-1.001,0.5005 -1.91434,1.24203 -3.003,1.5015c-2.00388,0.47761 -4.16258,-0.38245 -6.17993,0.0346c-1.54995,0.32042 -2.9424,1.24687 -4.5045,1.5015c-4.8147,0.78482 -10.53544,0.03228 -15.41547,0.03228c-1.9562,0 -9.6075,0.75608 -10.77678,-0.73223c-0.8483,-1.07976 -0.73223,-7.1094 -0.73223,-9.27527c0,-8.00801 0,-16.01602 0,-24.02402z" fill="#ff0000"/><path d="M-2.10309,26.99361c2.07608,0.24507 4.13093,0.77358 6.06279,1.53753c0.91782,0.36295 1.66207,1.14317 2.62068,1.37808c0.97224,0.23825 2.04448,-0.2885 3.003,0c1.50747,0.45372 2.79759,1.44457 4.19639,2.16686c0.72229,1.3988 1.79827,2.66587 2.16686,4.19639c0.39641,1.64605 0.05506,3.38582 0.06688,5.07889c0.03843,5.5075 0.1601,10.57476 -1.65679,15.88238c-0.84742,2.47555 -2.21868,4.76419 -2.93147,7.28181c-0.71329,2.51941 -0.69734,6.35285 -1.93098,8.38332c-0.63476,1.04476 -2.33755,0.90787 -3.222,1.75178c-0.59779,0.57039 -0.67243,1.50963 -0.99384,2.27081c-2.17678,5.15522 -4.50381,13.87217 -10.32773,16.28914c-1.68238,0.6982 -3.64016,0.14936 -5.46121,0.1903c-2.67346,0.06011 -6.84936,0.64958 -9.40946,-0.03228c-2.13394,-0.56836 -4.0881,-1.67163 -6.13215,-2.50744c-0.87525,-8.28104 -1.23469,-17.43378 -0.45973,-25.73214c0.2373,-2.54101 1.23439,-4.96946 1.5015,-7.50751c0.16861,-1.6021 -0.27522,-3.25574 0.05471,-4.83254c0.75196,-3.59378 3.76714,-6.76341 5.57681,-9.77951c0.85786,-1.42976 1.40027,-3.03183 2.23719,-4.47395c1.90158,-3.27668 4.47988,-6.09541 7.15808,-8.78844c-0.01564,-0.12793 -0.02395,-0.26368 -0.02395,-0.40774c0,-2.5 2.5,-2.5 2.5,-2.5h0.46134c0.25917,-0.25637 0.51731,-0.51269 0.77389,-0.76927c0,0 1.76777,-1.76777 3.53553,0c0.31106,0.31106 0.51265,0.62211 0.63366,0.92354z" fill="#ff0000"/><path d="M-9.00902,164.97748c2.20244,0 2.46458,1.9403 2.49578,2.40218c0.82377,0.35479 1.63978,0.72021 2.27499,1.33306c0.80541,0.77706 0.71014,2.21164 1.5015,3.003c0.79136,0.79136 2.21164,0.71014 3.003,1.5015c0.79136,0.79136 0.71026,2.21152 1.5015,3.003c0.77577,0.776 2.16873,0.68658 2.95357,1.45341c0.92332,0.90213 1.30351,2.22852 1.95527,3.34279c1.4022,0.94152 3.02426,1.61846 4.2066,2.82457c0.74877,0.76383 0.64231,2.12984 1.39507,2.88974c0.69646,0.70307 1.91201,0.63854 2.69701,1.24116c2.4543,1.8841 4.66235,4.38126 5.47585,7.45973c0.68829,2.60465 0.06688,5.38783 0.06688,8.08189c0,5.70123 1.13916,12.6912 -1.87487,17.83084c-1.82157,3.10621 -5.65374,5.24618 -7.90511,8.0912c-1.23698,1.56315 -1.88882,3.71243 -3.55238,4.81067c-1.16644,0.77005 -2.78613,0.23832 -4.18265,0.29581c-3.98764,0.16416 -8.02055,0 -12.01201,0c-3.04818,-0.05698 -5.89313,0.46519 -8.13263,-2.68717c-0.83657,-1.17757 -0.31229,-2.87414 -0.37337,-4.31733c-0.16874,-3.9869 0,-8.02012 0,-12.01201c0,-8.00801 0,-16.01602 0,-24.02402c0,-3.95683 -0.63564,-8.74437 0.06688,-12.58639c0.2013,-1.1009 1.21571,-1.92096 1.5015,-3.003c0.20681,-0.783 -0.04459,-1.61908 -0.06688,-2.42862c0,0 0,-0.2781 0.09275,-0.64879c-0.32012,-0.98815 0.17118,-1.97075 0.17118,-1.97075c0.80775,-1.3372 1.11372,-3.15971 2.42324,-4.0116c0.13219,-0.086 0.26983,-0.15618 0.41202,-0.21315c0.12075,-0.30328 0.32294,-0.61639 0.63604,-0.92949c0.91408,-0.91408 1.82815,-0.88285 2.49783,-0.63952c0.22624,-0.05922 0.4821,-0.09271 0.77144,-0.09271z" fill="#ff0000"/><path d="M-8.01052,293.6036c0,2.5 -2.5,2.5 -2.5,2.5h-0.37297c4.50831,3.54548 8.66542,7.79921 11.5086,12.70219c0.82572,1.42392 1.3066,3.03883 2.20266,4.41956c0.97622,1.50424 2.60718,2.56682 3.38114,4.18445c1.0341,2.16135 0.13362,4.83003 0.7287,7.15095c0.27796,1.08409 1.24203,1.91434 1.5015,3.003c0.27773,1.16528 0.00394,7.82233 -0.66536,8.34816c-1.65523,1.30041 -4.17384,0.56657 -6.27227,0.73223c-5.42629,0.42838 -11.07725,0 -16.51652,0c-1.23515,0 -6.64124,0.08625 -7.32033,-0.37337c-3.75776,-2.5433 -4.02129,-10.13226 -4.18717,-14.05197c-0.45425,-10.73342 -0.023,-21.58354 -0.00227,-32.33554c-0.04002,-0.01591 -0.07964,-0.03241 -0.11877,-0.04959c0,0 -2.23607,-1.11803 -1.11803,-3.3541c0.81256,-1.62513 2.21569,-1.47859 2.92175,-1.2772c0.23702,-0.06671 0.50739,-0.10476 0.81582,-0.10476c1.43793,0 2.0488,0.82705 2.30832,1.52977c0.3468,0.19842 0.67251,0.42568 0.96095,0.70397c0.80541,0.77706 0.77057,2.15551 1.5015,3.003c1.39076,1.61254 5.51717,0.76927 7.24124,0.76927h1.5015c0,0 2.5,0 2.5,2.5z" fill="#ff0000"/></g></g></svg>