<svg version="1.1" xmlns="http://www.w3.org/2000/svg" xmlns:xlink="http://www.w3.org/1999/xlink" width="139.5" height="218.5" viewBox="0,0,139.5,218.5"><g transform="translate(-172.25,-67.75)"><g data-paper-data="{&quot;isPaintingLayer&quot;:true}" fill-rule="nonzero" stroke="#000000" stroke-width="2.5" stroke-linecap="butt" stroke-linejoin="miter" stroke-miterlimit="10" stroke-dasharray="" stroke-dashoffset="0" style="mix-blend-mode: normal"><path d="M269.5,180c0,48.32492 -13.2076,87.5 -29.5,87.5c-16.2924,0 -29.5,-39.17508 -29.5,-87.5c0,-48.32491 13.2076,-87.5 29.5,-87.5c16.2924,0 29.5,39.17508 29.5,87.5z" fill="#00ff0a"/><path d="M278,180c0,21.53911 -17.01318,39 -38,39c-20.98682,0 -38,-17.46089 -38,-39c0,-21.53911 17.01318,-39 38,-39c20.98682,0 38,17.46089 38,39z" fill="#ffb900"/><path d="M310.5,87c0,9.94113 -7.83502,18 -17.5,18c-9.66498,0 -17.5,-8.05887 -17.5,-18c0,-9.94113 7.83502,-18 17.5,-18c9.66498,0 17.5,8.05887 17.5,18z" fill="#ffb900"/><path d="M205.5,270c0,8.28427 -7.16344,15 -16,15c-8.83656,0 -16,-6.71573 -16,-15c0,-8.28427 7.16344,-15 16,-15c8.83656,0 16,6.71573 16,15z" fill="#ffb900"/></g></g></svg>